<?xml version="1.0" encoding="UTF-8" standalone="no"?><svg xmlns="http://www.w3.org/2000/svg" xmlns:xlink="http://www.w3.org/1999/xlink" contentStyleType="text/css" height="4413px" preserveAspectRatio="none" style="width:786px;height:4413px;background:#FFFFFF;" version="1.1" viewBox="0 0 786 4413" width="786px" zoomAndPan="magnify"><defs/><g><rect fill="#F1F1F1" height="36.2969" rx="12.5" ry="12.5" style="stroke:#181818;stroke-width:1.5;" width="250" x="10" y="611.1172"/><text fill="#000000" font-family="sans-serif" font-size="14" lengthAdjust="spacing" textLength="230" x="20" y="634.1123">Electromagnetism: Static Fields</text><rect fill="#F1F1F1" height="36.2969" rx="12.5" ry="12.5" style="stroke:#181818;stroke-width:1.5;" width="158" x="310" y="329.6328"/><text fill="#000000" font-family="sans-serif" font-size="14" lengthAdjust="spacing" textLength="138" x="320" y="352.6279">Electrostatic Fields</text><rect fill="#F1F1F1" height="36.2969" rx="12.5" ry="12.5" style="stroke:#181818;stroke-width:1.5;" width="130" x="518" y="20"/><text fill="#000000" font-family="sans-serif" font-size="14" lengthAdjust="spacing" textLength="110" x="528" y="42.9951">Electric Charge</text><path d="M468,347.7813 L478,347.7813 C493,347.7813 493,38.1484 508,38.1484 L518,38.1484 " fill="none" style="stroke:#181818;stroke-width:1.0;"/><rect fill="#F1F1F1" height="36.2969" rx="12.5" ry="12.5" style="stroke:#181818;stroke-width:1.5;" width="105" x="518" y="76.2969"/><text fill="#000000" font-family="sans-serif" font-size="14" lengthAdjust="spacing" textLength="85" x="528" y="99.292">Polarization</text><path d="M468,347.7813 L478,347.7813 C493,347.7813 493,94.4453 508,94.4453 L518,94.4453 " fill="none" style="stroke:#181818;stroke-width:1.0;"/><rect fill="#F1F1F1" height="36.2969" rx="12.5" ry="12.5" style="stroke:#181818;stroke-width:1.5;" width="119" x="518" y="132.5938"/><text fill="#000000" font-family="sans-serif" font-size="14" lengthAdjust="spacing" textLength="99" x="528" y="155.5889">Electric Force</text><path d="M468,347.7813 L478,347.7813 C493,347.7813 493,150.7422 508,150.7422 L518,150.7422 " fill="none" style="stroke:#181818;stroke-width:1.0;"/><rect fill="#F1F1F1" height="36.2969" rx="12.5" ry="12.5" style="stroke:#181818;stroke-width:1.5;" width="151" x="518" y="188.8906"/><text fill="#000000" font-family="sans-serif" font-size="14" lengthAdjust="spacing" textLength="131" x="528" y="211.8857">Electrostatic Field</text><path d="M468,347.7813 L478,347.7813 C493,347.7813 493,207.0391 508,207.0391 L518,207.0391 " fill="none" style="stroke:#181818;stroke-width:1.0;"/><rect fill="#F1F1F1" height="36.2969" rx="12.5" ry="12.5" style="stroke:#181818;stroke-width:1.5;" width="107" x="518" y="245.1875"/><text fill="#000000" font-family="sans-serif" font-size="14" lengthAdjust="spacing" textLength="87" x="528" y="268.1826">Electric Flux</text><path d="M468,347.7813 L478,347.7813 C493,347.7813 493,263.3359 508,263.3359 L518,263.3359 " fill="none" style="stroke:#181818;stroke-width:1.0;"/><rect fill="#F1F1F1" height="36.2969" rx="12.5" ry="12.5" style="stroke:#181818;stroke-width:1.5;" width="103" x="518" y="301.4844"/><text fill="#000000" font-family="sans-serif" font-size="14" lengthAdjust="spacing" textLength="83" x="528" y="324.4795">Gauss's Law</text><path d="M468,347.7813 L478,347.7813 C493,347.7813 493,319.6328 508,319.6328 L518,319.6328 " fill="none" style="stroke:#181818;stroke-width:1.0;"/><rect fill="#F1F1F1" height="36.2969" rx="12.5" ry="12.5" style="stroke:#181818;stroke-width:1.5;" width="145" x="518" y="357.7813"/><text fill="#000000" font-family="sans-serif" font-size="14" lengthAdjust="spacing" textLength="125" x="528" y="380.7764">Electric Potential</text><path d="M468,347.7813 L478,347.7813 C493,347.7813 493,375.9297 508,375.9297 L518,375.9297 " fill="none" style="stroke:#181818;stroke-width:1.0;"/><rect fill="#F1F1F1" height="36.2969" rx="12.5" ry="12.5" style="stroke:#181818;stroke-width:1.5;" width="117" x="518" y="414.0781"/><text fill="#000000" font-family="sans-serif" font-size="14" lengthAdjust="spacing" textLength="97" x="528" y="437.0732">Electric Work</text><path d="M468,347.7813 L478,347.7813 C493,347.7813 493,432.2266 508,432.2266 L518,432.2266 " fill="none" style="stroke:#181818;stroke-width:1.0;"/><rect fill="#F1F1F1" height="36.2969" rx="12.5" ry="12.5" style="stroke:#181818;stroke-width:1.5;" width="140" x="518" y="470.375"/><text fill="#000000" font-family="sans-serif" font-size="14" lengthAdjust="spacing" textLength="120" x="528" y="493.3701">Potential Energy</text><path d="M468,347.7813 L478,347.7813 C493,347.7813 493,488.5234 508,488.5234 L518,488.5234 " fill="none" style="stroke:#181818;stroke-width:1.0;"/><rect fill="#F1F1F1" height="36.2969" rx="12.5" ry="12.5" style="stroke:#181818;stroke-width:1.5;" width="126" x="518" y="526.6719"/><text fill="#000000" font-family="sans-serif" font-size="14" lengthAdjust="spacing" textLength="106" x="528" y="549.667">Electric Dipole</text><path d="M468,347.7813 L478,347.7813 C493,347.7813 493,544.8203 508,544.8203 L518,544.8203 " fill="none" style="stroke:#181818;stroke-width:1.0;"/><rect fill="#F1F1F1" height="36.2969" rx="12.5" ry="12.5" style="stroke:#181818;stroke-width:1.5;" width="97" x="518" y="582.9688"/><text fill="#000000" font-family="sans-serif" font-size="14" lengthAdjust="spacing" textLength="77" x="528" y="605.9639">Dielectrics</text><path d="M468,347.7813 L478,347.7813 C493,347.7813 493,601.1172 508,601.1172 L518,601.1172 " fill="none" style="stroke:#181818;stroke-width:1.0;"/><rect fill="#F1F1F1" height="36.2969" rx="12.5" ry="12.5" style="stroke:#181818;stroke-width:1.5;" width="97" x="518" y="639.2656"/><text fill="#000000" font-family="sans-serif" font-size="14" lengthAdjust="spacing" textLength="77" x="528" y="662.2607">Capacitors</text><path d="M468,347.7813 L478,347.7813 C493,347.7813 493,657.4141 508,657.4141 L518,657.4141 " fill="none" style="stroke:#181818;stroke-width:1.0;"/><path d="M260,629.2656 L270,629.2656 C285,629.2656 285,347.7813 300,347.7813 L310,347.7813 " fill="none" style="stroke:#181818;stroke-width:1.0;"/><rect fill="#F1F1F1" height="36.2969" rx="12.5" ry="12.5" style="stroke:#181818;stroke-width:1.5;" width="175" x="310" y="948.8984"/><text fill="#000000" font-family="sans-serif" font-size="14" lengthAdjust="spacing" textLength="155" x="320" y="971.8936">Magneto-static Fields</text><rect fill="#F1F1F1" height="36.2969" rx="12.5" ry="12.5" style="stroke:#181818;stroke-width:1.5;" width="134" x="535" y="695.5625"/><text fill="#000000" font-family="sans-serif" font-size="14" lengthAdjust="spacing" textLength="114" x="545" y="718.5576">Electric Current</text><path d="M485,967.0469 L495,967.0469 C510,967.0469 510,713.7109 525,713.7109 L535,713.7109 " fill="none" style="stroke:#181818;stroke-width:1.0;"/><rect fill="#F1F1F1" height="36.2969" rx="12.5" ry="12.5" style="stroke:#181818;stroke-width:1.5;" width="96" x="535" y="751.8594"/><text fill="#000000" font-family="sans-serif" font-size="14" lengthAdjust="spacing" textLength="76" x="545" y="774.8545">Ohm's Law</text><path d="M485,967.0469 L495,967.0469 C510,967.0469 510,770.0078 525,770.0078 L535,770.0078 " fill="none" style="stroke:#181818;stroke-width:1.0;"/><rect fill="#F1F1F1" height="36.2969" rx="12.5" ry="12.5" style="stroke:#181818;stroke-width:1.5;" width="167" x="535" y="808.1563"/><text fill="#000000" font-family="sans-serif" font-size="14" lengthAdjust="spacing" textLength="147" x="545" y="831.1514">Electromotive Force</text><path d="M485,967.0469 L495,967.0469 C510,967.0469 510,826.3047 525,826.3047 L535,826.3047 " fill="none" style="stroke:#181818;stroke-width:1.0;"/><rect fill="#F1F1F1" height="36.2969" rx="12.5" ry="12.5" style="stroke:#181818;stroke-width:1.5;" width="130" x="535" y="864.4531"/><text fill="#000000" font-family="sans-serif" font-size="14" lengthAdjust="spacing" textLength="110" x="545" y="887.4482">Magnetic Force</text><path d="M485,967.0469 L495,967.0469 C510,967.0469 510,882.6016 525,882.6016 L535,882.6016 " fill="none" style="stroke:#181818;stroke-width:1.0;"/><rect fill="#F1F1F1" height="36.2969" rx="12.5" ry="12.5" style="stroke:#181818;stroke-width:1.5;" width="124" x="535" y="920.75"/><text fill="#000000" font-family="sans-serif" font-size="14" lengthAdjust="spacing" textLength="104" x="545" y="943.7451">Magnetic Field</text><path d="M485,967.0469 L495,967.0469 C510,967.0469 510,938.8984 525,938.8984 L535,938.8984 " fill="none" style="stroke:#181818;stroke-width:1.0;"/><rect fill="#F1F1F1" height="36.2969" rx="12.5" ry="12.5" style="stroke:#181818;stroke-width:1.5;" width="118" x="535" y="977.0469"/><text fill="#000000" font-family="sans-serif" font-size="14" lengthAdjust="spacing" textLength="98" x="545" y="1000.042">Magnetic Flux</text><path d="M485,967.0469 L495,967.0469 C510,967.0469 510,995.1953 525,995.1953 L535,995.1953 " fill="none" style="stroke:#181818;stroke-width:1.0;"/><rect fill="#F1F1F1" height="36.2969" rx="12.5" ry="12.5" style="stroke:#181818;stroke-width:1.5;" width="205" x="535" y="1033.3438"/><text fill="#000000" font-family="sans-serif" font-size="14" lengthAdjust="spacing" textLength="185" x="545" y="1056.3389">Gauss's Law of Magnetism</text><path d="M485,967.0469 L495,967.0469 C510,967.0469 510,1051.4922 525,1051.4922 L535,1051.4922 " fill="none" style="stroke:#181818;stroke-width:1.0;"/><rect fill="#F1F1F1" height="36.2969" rx="12.5" ry="12.5" style="stroke:#181818;stroke-width:1.5;" width="183" x="535" y="1089.6406"/><text fill="#000000" font-family="sans-serif" font-size="14" lengthAdjust="spacing" textLength="163" x="545" y="1112.6357">Ampere's Circuital Law</text><path d="M485,967.0469 L495,967.0469 C510,967.0469 510,1107.7891 525,1107.7891 L535,1107.7891 " fill="none" style="stroke:#181818;stroke-width:1.0;"/><rect fill="#F1F1F1" height="36.2969" rx="12.5" ry="12.5" style="stroke:#181818;stroke-width:1.5;" width="137" x="535" y="1145.9375"/><text fill="#000000" font-family="sans-serif" font-size="14" lengthAdjust="spacing" textLength="117" x="545" y="1168.9326">Magnetic Dipole</text><path d="M485,967.0469 L495,967.0469 C510,967.0469 510,1164.0859 525,1164.0859 L535,1164.0859 " fill="none" style="stroke:#181818;stroke-width:1.0;"/><rect fill="#F1F1F1" height="36.2969" rx="12.5" ry="12.5" style="stroke:#181818;stroke-width:1.5;" width="95" x="535" y="1202.2344"/><text fill="#000000" font-family="sans-serif" font-size="14" lengthAdjust="spacing" textLength="75" x="545" y="1225.2295">Hall Effect</text><path d="M485,967.0469 L495,967.0469 C510,967.0469 510,1220.3828 525,1220.3828 L535,1220.3828 " fill="none" style="stroke:#181818;stroke-width:1.0;"/><path d="M260,629.2656 L270,629.2656 C285,629.2656 285,967.0469 300,967.0469 L310,967.0469 " fill="none" style="stroke:#181818;stroke-width:1.0;"/><rect fill="#F1F1F1" height="36.2969" rx="12.5" ry="12.5" style="stroke:#181818;stroke-width:1.5;" width="269" x="10" y="1624.4609"/><text fill="#000000" font-family="sans-serif" font-size="14" lengthAdjust="spacing" textLength="249" x="20" y="1647.4561">Electromagnetism: Dynamic Fields</text><rect fill="#F1F1F1" height="36.2969" rx="12.5" ry="12.5" style="stroke:#181818;stroke-width:1.5;" width="233" x="329" y="1258.5313"/><text fill="#000000" font-family="sans-serif" font-size="14" lengthAdjust="spacing" textLength="213" x="339" y="1281.5264">Motional Electromotive Force</text><path d="M279,1642.6094 L289,1642.6094 C304,1642.6094 304,1276.6797 319,1276.6797 L329,1276.6797 " fill="none" style="stroke:#181818;stroke-width:1.0;"/><rect fill="#F1F1F1" height="36.2969" rx="12.5" ry="12.5" style="stroke:#181818;stroke-width:1.5;" width="117" x="329" y="1314.8281"/><text fill="#000000" font-family="sans-serif" font-size="14" lengthAdjust="spacing" textLength="97" x="339" y="1337.8232">Faraday's Law</text><path d="M279,1642.6094 L289,1642.6094 C304,1642.6094 304,1332.9766 319,1332.9766 L329,1332.9766 " fill="none" style="stroke:#181818;stroke-width:1.0;"/><rect fill="#F1F1F1" height="36.2969" rx="12.5" ry="12.5" style="stroke:#181818;stroke-width:1.5;" width="102" x="329" y="1371.125"/><text fill="#000000" font-family="sans-serif" font-size="14" lengthAdjust="spacing" textLength="82" x="339" y="1394.1201">Alternators</text><path d="M279,1642.6094 L289,1642.6094 C304,1642.6094 304,1389.2734 319,1389.2734 L329,1389.2734 " fill="none" style="stroke:#181818;stroke-width:1.0;"/><rect fill="#F1F1F1" height="36.2969" rx="12.5" ry="12.5" style="stroke:#181818;stroke-width:1.5;" width="150" x="329" y="1427.4219"/><text fill="#000000" font-family="sans-serif" font-size="14" lengthAdjust="spacing" textLength="130" x="339" y="1450.417">Mutual Inductance</text><path d="M279,1642.6094 L289,1642.6094 C304,1642.6094 304,1445.5703 319,1445.5703 L329,1445.5703 " fill="none" style="stroke:#181818;stroke-width:1.0;"/><rect fill="#F1F1F1" height="36.2969" rx="12.5" ry="12.5" style="stroke:#181818;stroke-width:1.5;" width="133" x="329" y="1483.7188"/><text fill="#000000" font-family="sans-serif" font-size="14" lengthAdjust="spacing" textLength="113" x="339" y="1506.7139">Self-Inductance</text><path d="M279,1642.6094 L289,1642.6094 C304,1642.6094 304,1501.8672 319,1501.8672 L329,1501.8672 " fill="none" style="stroke:#181818;stroke-width:1.0;"/><rect fill="#F1F1F1" height="36.2969" rx="12.5" ry="12.5" style="stroke:#181818;stroke-width:1.5;" width="121" x="329" y="1540.0156"/><text fill="#000000" font-family="sans-serif" font-size="14" lengthAdjust="spacing" textLength="101" x="339" y="1563.0107">Eddy Currents</text><path d="M279,1642.6094 L289,1642.6094 C304,1642.6094 304,1558.1641 319,1558.1641 L329,1558.1641 " fill="none" style="stroke:#181818;stroke-width:1.0;"/><rect fill="#F1F1F1" height="36.2969" rx="12.5" ry="12.5" style="stroke:#181818;stroke-width:1.5;" width="66" x="329" y="1793.3516"/><text fill="#000000" font-family="sans-serif" font-size="14" lengthAdjust="spacing" textLength="46" x="339" y="1816.3467">Waves</text><rect fill="#F1F1F1" height="36.2969" rx="12.5" ry="12.5" style="stroke:#181818;stroke-width:1.5;" width="179" x="445" y="1596.3125"/><text fill="#000000" font-family="sans-serif" font-size="14" lengthAdjust="spacing" textLength="159" x="455" y="1619.3076">Displacement Current</text><path d="M395,1811.5 L405,1811.5 C420,1811.5 420,1614.4609 435,1614.4609 L445,1614.4609 " fill="none" style="stroke:#181818;stroke-width:1.0;"/><rect fill="#F1F1F1" height="36.2969" rx="12.5" ry="12.5" style="stroke:#181818;stroke-width:1.5;" width="161" x="445" y="1652.6094"/><text fill="#000000" font-family="sans-serif" font-size="14" lengthAdjust="spacing" textLength="141" x="455" y="1675.6045">Maxwell's Equations</text><path d="M395,1811.5 L405,1811.5 C420,1811.5 420,1670.7578 435,1670.7578 L445,1670.7578 " fill="none" style="stroke:#181818;stroke-width:1.0;"/><rect fill="#F1F1F1" height="36.2969" rx="12.5" ry="12.5" style="stroke:#181818;stroke-width:1.5;" width="190" x="445" y="1708.9063"/><text fill="#000000" font-family="sans-serif" font-size="14" lengthAdjust="spacing" textLength="170" x="455" y="1731.9014">Electromagnetic Waves</text><path d="M395,1811.5 L405,1811.5 C420,1811.5 420,1727.0547 435,1727.0547 L445,1727.0547 " fill="none" style="stroke:#181818;stroke-width:1.0;"/><rect fill="#F1F1F1" height="36.2969" rx="12.5" ry="12.5" style="stroke:#181818;stroke-width:1.5;" width="109" x="445" y="1765.2031"/><text fill="#000000" font-family="sans-serif" font-size="14" lengthAdjust="spacing" textLength="89" x="455" y="1788.1982">Plane Waves</text><path d="M395,1811.5 L405,1811.5 C420,1811.5 420,1783.3516 435,1783.3516 L445,1783.3516 " fill="none" style="stroke:#181818;stroke-width:1.0;"/><rect fill="#F1F1F1" height="36.2969" rx="12.5" ry="12.5" style="stroke:#181818;stroke-width:1.5;" width="215" x="445" y="1821.5"/><text fill="#000000" font-family="sans-serif" font-size="14" lengthAdjust="spacing" textLength="195" x="455" y="1844.4951">Electromagnetic Spectrum</text><path d="M395,1811.5 L405,1811.5 C420,1811.5 420,1839.6484 435,1839.6484 L445,1839.6484 " fill="none" style="stroke:#181818;stroke-width:1.0;"/><rect fill="#F1F1F1" height="36.2969" rx="12.5" ry="12.5" style="stroke:#181818;stroke-width:1.5;" width="128" x="445" y="1877.7969"/><text fill="#000000" font-family="sans-serif" font-size="14" lengthAdjust="spacing" textLength="108" x="455" y="1900.792">Poyntig Vector</text><path d="M395,1811.5 L405,1811.5 C420,1811.5 420,1895.9453 435,1895.9453 L445,1895.9453 " fill="none" style="stroke:#181818;stroke-width:1.0;"/><rect fill="#F1F1F1" height="36.2969" rx="12.5" ry="12.5" style="stroke:#181818;stroke-width:1.5;" width="295" x="445" y="1934.0938"/><text fill="#000000" font-family="sans-serif" font-size="14" lengthAdjust="spacing" textLength="275" x="455" y="1957.0889">Electromagnetic Waves on Boundaries</text><path d="M395,1811.5 L405,1811.5 C420,1811.5 420,1952.2422 435,1952.2422 L445,1952.2422 " fill="none" style="stroke:#181818;stroke-width:1.0;"/><rect fill="#F1F1F1" height="36.2969" rx="12.5" ry="12.5" style="stroke:#181818;stroke-width:1.5;" width="134" x="445" y="1990.3906"/><text fill="#000000" font-family="sans-serif" font-size="14" lengthAdjust="spacing" textLength="114" x="455" y="2013.3857">Standing Waves</text><path d="M395,1811.5 L405,1811.5 C420,1811.5 420,2008.5391 435,2008.5391 L445,2008.5391 " fill="none" style="stroke:#181818;stroke-width:1.0;"/><path d="M279,1642.6094 L289,1642.6094 C304,1642.6094 304,1811.5 319,1811.5 L329,1811.5 " fill="none" style="stroke:#181818;stroke-width:1.0;"/><rect fill="#F1F1F1" height="36.2969" rx="12.5" ry="12.5" style="stroke:#181818;stroke-width:1.5;" width="168" x="10" y="2271.875"/><text fill="#000000" font-family="sans-serif" font-size="14" lengthAdjust="spacing" textLength="148" x="20" y="2294.8701">Electric Circuits (DC)</text><rect fill="#F1F1F1" height="36.2969" rx="12.5" ry="12.5" style="stroke:#181818;stroke-width:1.5;" width="74" x="228" y="2046.6875"/><text fill="#000000" font-family="sans-serif" font-size="14" lengthAdjust="spacing" textLength="54" x="238" y="2069.6826">Circuits</text><path d="M178,2290.0234 L188,2290.0234 C203,2290.0234 203,2064.8359 218,2064.8359 L228,2064.8359 " fill="none" style="stroke:#181818;stroke-width:1.0;"/><rect fill="#F1F1F1" height="36.2969" rx="12.5" ry="12.5" style="stroke:#181818;stroke-width:1.5;" width="169" x="228" y="2102.9844"/><text fill="#000000" font-family="sans-serif" font-size="14" lengthAdjust="spacing" textLength="149" x="238" y="2125.9795">Passive Components</text><path d="M178,2290.0234 L188,2290.0234 C203,2290.0234 203,2121.1328 218,2121.1328 L228,2121.1328 " fill="none" style="stroke:#181818;stroke-width:1.0;"/><rect fill="#F1F1F1" height="36.2969" rx="12.5" ry="12.5" style="stroke:#181818;stroke-width:1.5;" width="163" x="228" y="2159.2813"/><text fill="#000000" font-family="sans-serif" font-size="14" lengthAdjust="spacing" textLength="143" x="238" y="2182.2764">Active Components</text><path d="M178,2290.0234 L188,2290.0234 C203,2290.0234 203,2177.4297 218,2177.4297 L228,2177.4297 " fill="none" style="stroke:#181818;stroke-width:1.0;"/><rect fill="#F1F1F1" height="36.2969" rx="12.5" ry="12.5" style="stroke:#181818;stroke-width:1.5;" width="196" x="228" y="2215.5781"/><text fill="#000000" font-family="sans-serif" font-size="14" lengthAdjust="spacing" textLength="176" x="238" y="2238.5732">Electrical Measurements</text><path d="M178,2290.0234 L188,2290.0234 C203,2290.0234 203,2233.7266 218,2233.7266 L228,2233.7266 " fill="none" style="stroke:#181818;stroke-width:1.0;"/><rect fill="#F1F1F1" height="36.2969" rx="12.5" ry="12.5" style="stroke:#181818;stroke-width:1.5;" width="127" x="228" y="2271.875"/><text fill="#000000" font-family="sans-serif" font-size="14" lengthAdjust="spacing" textLength="107" x="238" y="2294.8701">Kirchoff's Laws</text><path d="M178,2290.0234 L188,2290.0234 C203,2290.0234 203,2290.0234 218,2290.0234 L228,2290.0234 " fill="none" style="stroke:#181818;stroke-width:1.0;"/><rect fill="#F1F1F1" height="36.2969" rx="12.5" ry="12.5" style="stroke:#181818;stroke-width:1.5;" width="218" x="228" y="2328.1719"/><text fill="#000000" font-family="sans-serif" font-size="14" lengthAdjust="spacing" textLength="198" x="238" y="2351.167">Transient and Steady-State</text><path d="M178,2290.0234 L188,2290.0234 C203,2290.0234 203,2346.3203 218,2346.3203 L228,2346.3203 " fill="none" style="stroke:#181818;stroke-width:1.0;"/><rect fill="#F1F1F1" height="36.2969" rx="12.5" ry="12.5" style="stroke:#181818;stroke-width:1.5;" width="123" x="228" y="2384.4688"/><text fill="#000000" font-family="sans-serif" font-size="14" lengthAdjust="spacing" textLength="103" x="238" y="2407.4639">Electric Power</text><path d="M178,2290.0234 L188,2290.0234 C203,2290.0234 203,2402.6172 218,2402.6172 L228,2402.6172 " fill="none" style="stroke:#181818;stroke-width:1.0;"/><rect fill="#F1F1F1" height="36.2969" rx="12.5" ry="12.5" style="stroke:#181818;stroke-width:1.5;" width="220" x="228" y="2440.7656"/><text fill="#000000" font-family="sans-serif" font-size="14" lengthAdjust="spacing" textLength="200" x="238" y="2463.7607">Systematics Circuit Analysis</text><path d="M178,2290.0234 L188,2290.0234 C203,2290.0234 203,2458.9141 218,2458.9141 L228,2458.9141 " fill="none" style="stroke:#181818;stroke-width:1.0;"/><rect fill="#F1F1F1" height="36.2969" rx="12.5" ry="12.5" style="stroke:#181818;stroke-width:1.5;" width="143" x="228" y="2497.0625"/><text fill="#000000" font-family="sans-serif" font-size="14" lengthAdjust="spacing" textLength="123" x="238" y="2520.0576">Circuit Theorems</text><path d="M178,2290.0234 L188,2290.0234 C203,2290.0234 203,2515.2109 218,2515.2109 L228,2515.2109 " fill="none" style="stroke:#181818;stroke-width:1.0;"/><rect fill="#F1F1F1" height="36.2969" rx="12.5" ry="12.5" style="stroke:#181818;stroke-width:1.5;" width="167" x="10" y="2665.9531"/><text fill="#000000" font-family="sans-serif" font-size="14" lengthAdjust="spacing" textLength="147" x="20" y="2688.9482">Electric Circuits (AC)</text><rect fill="#F1F1F1" height="36.2969" rx="12.5" ry="12.5" style="stroke:#181818;stroke-width:1.5;" width="75" x="227" y="2553.3594"/><text fill="#000000" font-family="sans-serif" font-size="14" lengthAdjust="spacing" textLength="55" x="237" y="2576.3545">Phasors</text><path d="M177,2684.1016 L187,2684.1016 C202,2684.1016 202,2571.5078 217,2571.5078 L227,2571.5078 " fill="none" style="stroke:#181818;stroke-width:1.0;"/><rect fill="#F1F1F1" height="36.2969" rx="12.5" ry="12.5" style="stroke:#181818;stroke-width:1.5;" width="226" x="227" y="2609.6563"/><text fill="#000000" font-family="sans-serif" font-size="14" lengthAdjust="spacing" textLength="206" x="237" y="2632.6514">Generalized Kirchhoff's Laws</text><path d="M177,2684.1016 L187,2684.1016 C202,2684.1016 202,2627.8047 217,2627.8047 L227,2627.8047 " fill="none" style="stroke:#181818;stroke-width:1.0;"/><rect fill="#F1F1F1" height="36.2969" rx="12.5" ry="12.5" style="stroke:#181818;stroke-width:1.5;" width="88" x="227" y="2665.9531"/><text fill="#000000" font-family="sans-serif" font-size="14" lengthAdjust="spacing" textLength="68" x="237" y="2688.9482">AC Power</text><path d="M177,2684.1016 L187,2684.1016 C202,2684.1016 202,2684.1016 217,2684.1016 L227,2684.1016 " fill="none" style="stroke:#181818;stroke-width:1.0;"/><rect fill="#F1F1F1" height="36.2969" rx="12.5" ry="12.5" style="stroke:#181818;stroke-width:1.5;" width="229" x="227" y="2722.25"/><text fill="#000000" font-family="sans-serif" font-size="14" lengthAdjust="spacing" textLength="209" x="237" y="2745.2451">Frequency Response Analysis</text><path d="M177,2684.1016 L187,2684.1016 C202,2684.1016 202,2740.3984 217,2740.3984 L227,2740.3984 " fill="none" style="stroke:#181818;stroke-width:1.0;"/><rect fill="#F1F1F1" height="36.2969" rx="12.5" ry="12.5" style="stroke:#181818;stroke-width:1.5;" width="65" x="227" y="2778.5469"/><text fill="#000000" font-family="sans-serif" font-size="14" lengthAdjust="spacing" textLength="45" x="237" y="2801.542">Filters</text><path d="M177,2684.1016 L187,2684.1016 C202,2684.1016 202,2796.6953 217,2796.6953 L227,2796.6953 " fill="none" style="stroke:#181818;stroke-width:1.0;"/><rect fill="#F1F1F1" height="36.2969" rx="12.5" ry="12.5" style="stroke:#181818;stroke-width:1.5;" width="136" x="10" y="3060.0313"/><text fill="#000000" font-family="sans-serif" font-size="14" lengthAdjust="spacing" textLength="116" x="20" y="3083.0264">Semiconductors</text><rect fill="#F1F1F1" height="36.2969" rx="12.5" ry="12.5" style="stroke:#181818;stroke-width:1.5;" width="117" x="196" y="2891.1406"/><text fill="#000000" font-family="sans-serif" font-size="14" lengthAdjust="spacing" textLength="97" x="206" y="2914.1357">In Equilibrium</text><rect fill="#F1F1F1" height="36.2969" rx="12.5" ry="12.5" style="stroke:#181818;stroke-width:1.5;" width="110" x="363" y="2834.8438"/><text fill="#000000" font-family="sans-serif" font-size="14" lengthAdjust="spacing" textLength="90" x="373" y="2857.8389">Band Theory</text><path d="M313,2909.2891 L323,2909.2891 C338,2909.2891 338,2852.9922 353,2852.9922 L363,2852.9922 " fill="none" style="stroke:#181818;stroke-width:1.0;"/><rect fill="#F1F1F1" height="36.2969" rx="12.5" ry="12.5" style="stroke:#181818;stroke-width:1.5;" width="198" x="363" y="2891.1406"/><text fill="#000000" font-family="sans-serif" font-size="14" lengthAdjust="spacing" textLength="178" x="373" y="2914.1357">Intrinsic Semiconductors</text><path d="M313,2909.2891 L323,2909.2891 C338,2909.2891 338,2909.2891 353,2909.2891 L363,2909.2891 " fill="none" style="stroke:#181818;stroke-width:1.0;"/><rect fill="#F1F1F1" height="36.2969" rx="12.5" ry="12.5" style="stroke:#181818;stroke-width:1.5;" width="202" x="363" y="2947.4375"/><text fill="#000000" font-family="sans-serif" font-size="14" lengthAdjust="spacing" textLength="182" x="373" y="2970.4326">Extrinsic Semiconductors</text><path d="M313,2909.2891 L323,2909.2891 C338,2909.2891 338,2965.5859 353,2965.5859 L363,2965.5859 " fill="none" style="stroke:#181818;stroke-width:1.0;"/><path d="M146,3078.1797 L156,3078.1797 C171,3078.1797 171,2909.2891 186,2909.2891 L196,2909.2891 " fill="none" style="stroke:#181818;stroke-width:1.0;"/><rect fill="#F1F1F1" height="36.2969" rx="12.5" ry="12.5" style="stroke:#181818;stroke-width:1.5;" width="149" x="196" y="3031.8828"/><text fill="#000000" font-family="sans-serif" font-size="14" lengthAdjust="spacing" textLength="129" x="206" y="3054.8779">Out of Equilibrium</text><rect fill="#F1F1F1" height="36.2969" rx="12.5" ry="12.5" style="stroke:#181818;stroke-width:1.5;" width="307" x="395" y="3003.7344"/><text fill="#000000" font-family="sans-serif" font-size="14" lengthAdjust="spacing" textLength="287" x="405" y="3026.7295">Electric Conductivity in Semiconductors</text><path d="M345,3050.0313 L355,3050.0313 C370,3050.0313 370,3021.8828 385,3021.8828 L395,3021.8828 " fill="none" style="stroke:#181818;stroke-width:1.0;"/><rect fill="#F1F1F1" height="36.2969" rx="12.5" ry="12.5" style="stroke:#181818;stroke-width:1.5;" width="379" x="395" y="3060.0313"/><text fill="#000000" font-family="sans-serif" font-size="14" lengthAdjust="spacing" textLength="359" x="405" y="3083.0264">Generation and Recombination of Charge Carriers</text><path d="M345,3050.0313 L355,3050.0313 C370,3050.0313 370,3078.1797 385,3078.1797 L395,3078.1797 " fill="none" style="stroke:#181818;stroke-width:1.0;"/><path d="M146,3078.1797 L156,3078.1797 C171,3078.1797 171,3050.0313 186,3050.0313 L196,3050.0313 " fill="none" style="stroke:#181818;stroke-width:1.0;"/><rect fill="#F1F1F1" height="36.2969" rx="12.5" ry="12.5" style="stroke:#181818;stroke-width:1.5;" width="108" x="196" y="3200.7734"/><text fill="#000000" font-family="sans-serif" font-size="14" lengthAdjust="spacing" textLength="88" x="206" y="3223.7686">PN Junctions</text><rect fill="#F1F1F1" height="36.2969" rx="12.5" ry="12.5" style="stroke:#181818;stroke-width:1.5;" width="117" x="354" y="3116.3281"/><text fill="#000000" font-family="sans-serif" font-size="14" lengthAdjust="spacing" textLength="97" x="364" y="3139.3232">In Equilibrium</text><path d="M304,3218.9219 L314,3218.9219 C329,3218.9219 329,3134.4766 344,3134.4766 L354,3134.4766 " fill="none" style="stroke:#181818;stroke-width:1.0;"/><rect fill="#F1F1F1" height="36.2969" rx="12.5" ry="12.5" style="stroke:#181818;stroke-width:1.5;" width="155" x="354" y="3172.625"/><text fill="#000000" font-family="sans-serif" font-size="14" lengthAdjust="spacing" textLength="135" x="364" y="3195.6201">Polarized Junctions</text><path d="M304,3218.9219 L314,3218.9219 C329,3218.9219 329,3190.7734 344,3190.7734 L354,3190.7734 " fill="none" style="stroke:#181818;stroke-width:1.0;"/><rect fill="#F1F1F1" height="36.2969" rx="12.5" ry="12.5" style="stroke:#181818;stroke-width:1.5;" width="284" x="354" y="3228.9219"/><text fill="#000000" font-family="sans-serif" font-size="14" lengthAdjust="spacing" textLength="264" x="364" y="3251.917">Characteristic I-V Curve of the Diode</text><path d="M304,3218.9219 L314,3218.9219 C329,3218.9219 329,3247.0703 344,3247.0703 L354,3247.0703 " fill="none" style="stroke:#181818;stroke-width:1.0;"/><rect fill="#F1F1F1" height="36.2969" rx="12.5" ry="12.5" style="stroke:#181818;stroke-width:1.5;" width="190" x="354" y="3285.2188"/><text fill="#000000" font-family="sans-serif" font-size="14" lengthAdjust="spacing" textLength="170" x="364" y="3308.2139">Optoelectronic Devices</text><path d="M304,3218.9219 L314,3218.9219 C329,3218.9219 329,3303.3672 344,3303.3672 L354,3303.3672 " fill="none" style="stroke:#181818;stroke-width:1.0;"/><path d="M146,3078.1797 L156,3078.1797 C171,3078.1797 171,3218.9219 186,3218.9219 L196,3218.9219 " fill="none" style="stroke:#181818;stroke-width:1.0;"/><rect fill="#F1F1F1" height="36.2969" rx="12.5" ry="12.5" style="stroke:#181818;stroke-width:1.5;" width="99" x="10" y="3735.5938"/><text fill="#000000" font-family="sans-serif" font-size="14" lengthAdjust="spacing" textLength="79" x="20" y="3758.5889">Transistors</text><rect fill="#F1F1F1" height="36.2969" rx="12.5" ry="12.5" style="stroke:#181818;stroke-width:1.5;" width="216" x="159" y="3454.1094"/><text fill="#000000" font-family="sans-serif" font-size="14" lengthAdjust="spacing" textLength="196" x="169" y="3477.1045">Bipolar Junction Transistors</text><rect fill="#F1F1F1" height="36.2969" rx="12.5" ry="12.5" style="stroke:#181818;stroke-width:1.5;" width="145" x="425" y="3341.5156"/><text fill="#000000" font-family="sans-serif" font-size="14" lengthAdjust="spacing" textLength="125" x="435" y="3364.5107">Basic Functioning</text><path d="M375,3472.2578 L385,3472.2578 C400,3472.2578 400,3359.6641 415,3359.6641 L425,3359.6641 " fill="none" style="stroke:#181818;stroke-width:1.0;"/><rect fill="#F1F1F1" height="36.2969" rx="12.5" ry="12.5" style="stroke:#181818;stroke-width:1.5;" width="105" x="425" y="3397.8125"/><text fill="#000000" font-family="sans-serif" font-size="14" lengthAdjust="spacing" textLength="85" x="435" y="3420.8076">Polarization</text><path d="M375,3472.2578 L385,3472.2578 C400,3472.2578 400,3415.9609 415,3415.9609 L425,3415.9609 " fill="none" style="stroke:#181818;stroke-width:1.0;"/><rect fill="#F1F1F1" height="36.2969" rx="12.5" ry="12.5" style="stroke:#181818;stroke-width:1.5;" width="85" x="425" y="3454.1094"/><text fill="#000000" font-family="sans-serif" font-size="14" lengthAdjust="spacing" textLength="65" x="435" y="3477.1045">Modeling</text><path d="M375,3472.2578 L385,3472.2578 C400,3472.2578 400,3472.2578 415,3472.2578 L425,3472.2578 " fill="none" style="stroke:#181818;stroke-width:1.0;"/><rect fill="#F1F1F1" height="36.2969" rx="12.5" ry="12.5" style="stroke:#181818;stroke-width:1.5;" width="246" x="425" y="3510.4063"/><text fill="#000000" font-family="sans-serif" font-size="14" lengthAdjust="spacing" textLength="226" x="435" y="3533.4014">Circuit Analysis with Transistors</text><path d="M375,3472.2578 L385,3472.2578 C400,3472.2578 400,3528.5547 415,3528.5547 L425,3528.5547 " fill="none" style="stroke:#181818;stroke-width:1.0;"/><rect fill="#F1F1F1" height="36.2969" rx="12.5" ry="12.5" style="stroke:#181818;stroke-width:1.5;" width="125" x="425" y="3566.7031"/><text fill="#000000" font-family="sans-serif" font-size="14" lengthAdjust="spacing" textLength="105" x="435" y="3589.6982">Digital Circuits</text><path d="M375,3472.2578 L385,3472.2578 C400,3472.2578 400,3584.8516 415,3584.8516 L425,3584.8516 " fill="none" style="stroke:#181818;stroke-width:1.0;"/><path d="M109,3753.7422 L119,3753.7422 C134,3753.7422 134,3472.2578 149,3472.2578 L159,3472.2578 " fill="none" style="stroke:#181818;stroke-width:1.0;"/><rect fill="#F1F1F1" height="36.2969" rx="12.5" ry="12.5" style="stroke:#181818;stroke-width:1.5;" width="85" x="159" y="3848.1875"/><text fill="#000000" font-family="sans-serif" font-size="14" lengthAdjust="spacing" textLength="65" x="169" y="3871.1826">MOSFETs</text><rect fill="#F1F1F1" height="36.2969" rx="12.5" ry="12.5" style="stroke:#181818;stroke-width:1.5;" width="124" x="294" y="3623"/><text fill="#000000" font-family="sans-serif" font-size="14" lengthAdjust="spacing" textLength="104" x="304" y="3645.9951">Work Function</text><path d="M244,3866.3359 L254,3866.3359 C269,3866.3359 269,3641.1484 284,3641.1484 L294,3641.1484 " fill="none" style="stroke:#181818;stroke-width:1.0;"/><rect fill="#F1F1F1" height="36.2969" rx="12.5" ry="12.5" style="stroke:#181818;stroke-width:1.5;" width="52" x="294" y="3679.2969"/><text fill="#000000" font-family="sans-serif" font-size="14" lengthAdjust="spacing" textLength="32" x="304" y="3702.292">MOS</text><path d="M244,3866.3359 L254,3866.3359 C269,3866.3359 269,3697.4453 284,3697.4453 L294,3697.4453 " fill="none" style="stroke:#181818;stroke-width:1.0;"/><rect fill="#F1F1F1" height="36.2969" rx="12.5" ry="12.5" style="stroke:#181818;stroke-width:1.5;" width="78" x="294" y="3735.5938"/><text fill="#000000" font-family="sans-serif" font-size="14" lengthAdjust="spacing" textLength="58" x="304" y="3758.5889">MOSFET</text><path d="M244,3866.3359 L254,3866.3359 C269,3866.3359 269,3753.7422 284,3753.7422 L294,3753.7422 " fill="none" style="stroke:#181818;stroke-width:1.0;"/><rect fill="#F1F1F1" height="36.2969" rx="12.5" ry="12.5" style="stroke:#181818;stroke-width:1.5;" width="186" x="294" y="3791.8906"/><text fill="#000000" font-family="sans-serif" font-size="14" lengthAdjust="spacing" textLength="166" x="304" y="3814.8857">Qualitative Functioning</text><path d="M244,3866.3359 L254,3866.3359 C269,3866.3359 269,3810.0391 284,3810.0391 L294,3810.0391 " fill="none" style="stroke:#181818;stroke-width:1.0;"/><rect fill="#F1F1F1" height="36.2969" rx="12.5" ry="12.5" style="stroke:#181818;stroke-width:1.5;" width="105" x="294" y="3848.1875"/><text fill="#000000" font-family="sans-serif" font-size="14" lengthAdjust="spacing" textLength="85" x="304" y="3871.1826">Polarization</text><path d="M244,3866.3359 L254,3866.3359 C269,3866.3359 269,3866.3359 284,3866.3359 L294,3866.3359 " fill="none" style="stroke:#181818;stroke-width:1.0;"/><rect fill="#F1F1F1" height="36.2969" rx="12.5" ry="12.5" style="stroke:#181818;stroke-width:1.5;" width="85" x="294" y="3904.4844"/><text fill="#000000" font-family="sans-serif" font-size="14" lengthAdjust="spacing" textLength="65" x="304" y="3927.4795">Modeling</text><path d="M244,3866.3359 L254,3866.3359 C269,3866.3359 269,3922.6328 284,3922.6328 L294,3922.6328 " fill="none" style="stroke:#181818;stroke-width:1.0;"/><rect fill="#F1F1F1" height="36.2969" rx="12.5" ry="12.5" style="stroke:#181818;stroke-width:1.5;" width="232" x="294" y="3960.7813"/><text fill="#000000" font-family="sans-serif" font-size="14" lengthAdjust="spacing" textLength="212" x="304" y="3983.7764">Circuit Analysis with MOSFETs</text><path d="M244,3866.3359 L254,3866.3359 C269,3866.3359 269,3978.9297 284,3978.9297 L294,3978.9297 " fill="none" style="stroke:#181818;stroke-width:1.0;"/><rect fill="#F1F1F1" height="36.2969" rx="12.5" ry="12.5" style="stroke:#181818;stroke-width:1.5;" width="62" x="294" y="4017.0781"/><text fill="#000000" font-family="sans-serif" font-size="14" lengthAdjust="spacing" textLength="42" x="304" y="4040.0732">CMOS</text><path d="M244,3866.3359 L254,3866.3359 C269,3866.3359 269,4035.2266 284,4035.2266 L294,4035.2266 " fill="none" style="stroke:#181818;stroke-width:1.0;"/><rect fill="#F1F1F1" height="36.2969" rx="12.5" ry="12.5" style="stroke:#181818;stroke-width:1.5;" width="185" x="294" y="4073.375"/><text fill="#000000" font-family="sans-serif" font-size="14" lengthAdjust="spacing" textLength="165" x="304" y="4096.3701">Logic Gates with CMOS</text><path d="M244,3866.3359 L254,3866.3359 C269,3866.3359 269,4091.5234 284,4091.5234 L294,4091.5234 " fill="none" style="stroke:#181818;stroke-width:1.0;"/><path d="M109,3753.7422 L119,3753.7422 C134,3753.7422 134,3866.3359 149,3866.3359 L159,3866.3359 " fill="none" style="stroke:#181818;stroke-width:1.0;"/><rect fill="#F1F1F1" height="36.2969" rx="12.5" ry="12.5" style="stroke:#181818;stroke-width:1.5;" width="279" x="159" y="4129.6719"/><text fill="#000000" font-family="sans-serif" font-size="14" lengthAdjust="spacing" textLength="259" x="169" y="4152.667">Comparison of Bipolar and MOSFETs</text><path d="M109,3753.7422 L119,3753.7422 C134,3753.7422 134,4147.8203 149,4147.8203 L159,4147.8203 " fill="none" style="stroke:#181818;stroke-width:1.0;"/><rect fill="#F1F1F1" height="36.2969" rx="12.5" ry="12.5" style="stroke:#181818;stroke-width:1.5;" width="163" x="10" y="4214.1172"/><text fill="#000000" font-family="sans-serif" font-size="14" lengthAdjust="spacing" textLength="143" x="20" y="4237.1123">Quantum Mechanics</text><rect fill="#F1F1F1" height="36.2969" rx="12.5" ry="12.5" style="stroke:#181818;stroke-width:1.5;" width="198" x="223" y="4185.9688"/><text fill="#000000" font-family="sans-serif" font-size="14" lengthAdjust="spacing" textLength="178" x="233" y="4208.9639">Laws of Quantum Physics</text><path d="M173,4232.2656 L183,4232.2656 C198,4232.2656 198,4204.1172 213,4204.1172 L223,4204.1172 " fill="none" style="stroke:#181818;stroke-width:1.0;"/><rect fill="#F1F1F1" height="36.2969" rx="12.5" ry="12.5" style="stroke:#181818;stroke-width:1.5;" width="200" x="223" y="4242.2656"/><text fill="#000000" font-family="sans-serif" font-size="14" lengthAdjust="spacing" textLength="180" x="233" y="4265.2607">Superconducting Circuits</text><path d="M173,4232.2656 L183,4232.2656 C198,4232.2656 198,4260.4141 213,4260.4141 L223,4260.4141 " fill="none" style="stroke:#181818;stroke-width:1.0;"/><rect fill="#F1F1F1" height="36.2969" rx="12.5" ry="12.5" style="stroke:#181818;stroke-width:1.5;" width="109" x="10" y="4326.7109"/><text fill="#000000" font-family="sans-serif" font-size="14" lengthAdjust="spacing" textLength="89" x="20" y="4349.7061">Final Project</text><rect fill="#F1F1F1" height="36.2969" rx="12.5" ry="12.5" style="stroke:#181818;stroke-width:1.5;" width="138" x="169" y="4298.5625"/><text fill="#000000" font-family="sans-serif" font-size="14" lengthAdjust="spacing" textLength="118" x="179" y="4321.5576">Project Proposal</text><path d="M119,4344.8594 L129,4344.8594 C144,4344.8594 144,4316.7109 159,4316.7109 L169,4316.7109 " fill="none" style="stroke:#181818;stroke-width:1.0;"/><rect fill="#F1F1F1" height="36.2969" rx="12.5" ry="12.5" style="stroke:#181818;stroke-width:1.5;" width="127" x="169" y="4354.8594"/><text fill="#000000" font-family="sans-serif" font-size="14" lengthAdjust="spacing" textLength="107" x="179" y="4377.8545">Project Report</text><path d="M119,4344.8594 L129,4344.8594 C144,4344.8594 144,4373.0078 159,4373.0078 L169,4373.0078 " fill="none" style="stroke:#181818;stroke-width:1.0;"/><!--SRC=[hLPBSzj63BxpL-ojzdYKQP9Ef-DJP3qSksAbch9pXab8seJSPVOXc_dr1NP9IfILdd8Y2M3n-F01oq_MWN6LL4K5TN8bPYNcpkWAjWgTjDMro1mucOkvnBAmoLLlOa_adO9aansOBGRPIfTWv0yorMfeDDScnoFHmE69QUbVW-GMlBM_MR60bw75IZjKJa8v57_HvbkRHgiNCuLcsmpDfhBMPSnbIj6ZDDOqWHfowRG9fQS15ZtwlzgzCHGg29Uxwasokj9Exl6e_EXqWCX1r8Dn49q1G-XDPs2he1nNDHeaxKIQt4j7bNTvz9wEoluC9K6psL26PqamRHHK0nQacblAW9ujIyp1G05DNxyObmwDWXvAxpoTlbE5pnseU2Z3SZCQYcP5qNIWXeDVO8-sxPMjIyYn8jK0znHUNx0iAVRikm_KiuCET00SNArAK7ZqVMgPrVpjgvPC3N5fAvv8fitFFGkjn8tsgg09QFtICAb2gcqRAZacJcoK5HVJoIKNsWduVGNMChmJNTLQTL2CS_TMs3aaS5C4wqt09wZ-9eyxlTd4fWJHse2oaW6an2WzXA8PySXZCfol5pIXGurrM37xUsg9CT6WiT8U9ItMEzGKsPwlS1mhNEt0jdIuHPfBAEKFB6AQ9tcE9uSSvWQ_UrHv8nxGKkKM1odC9JED8sT8dDM1JcsOEyMKaALyDhBjvWqN7jADM-5EKRA4IVxsEDNo-bEbM7h7StZg_r1-j9PxwHeXrJdt4GKcR6Z70-QwUfOgIiXtNAoqb0mnAaPT_IFklSeF93zJOhk42TgXARk3dC2IbabxDthYCI96KIYtGnemNSJziAoTZejHAzuSk9SvKxhbZ-qmkE6L0gQFSw9dj1cyUQkcIJX_IwGKkEoqfpmJBzBjtdYUocrOSyTZaowp-MmTzNmNz85Za6NMFSaglFvBEqdoSkTLzWkIF4vWqiLRw2rXS4iprbgrcZ385CB6PdTOCXDwFvoXShwYsSvteE8r5QQ4ZtJArOvIYAhCqqNGqemNpm4U6XJUtokZluQrVzMzyhFMDboclUm1QsrSyWdfJw7zMqXuQxh7T27sH4Rkzljt7tx_yF7T-sTqyF7YKNrJ-aK98d4jInHELdYPNDok5i9gJ_U4AAX_HZvxXlGokOSzY0UlsEvQyDV5EhqKsQmJqkMzbyH0NcZ9_LCQZSHdxR9Qks3yvn-Z6-f2XaHZ8vxIP8eRyAMZexdcpNij7jVpqL_90jJMmvO2eKecjAMTQKYN_GS0]--></g></svg>